<mxfile host="app.diagrams.net" modified="2024-01-18T07:04:49.257Z" version="22.1.21" type="device">
  <diagram name="Page-1" id="lv-4qjU7L2LQTBM-ieAA">
    <mxGraphModel dx="786" dy="455" grid="1" gridSize="10" guides="1" tooltips="1" connect="1" arrows="1" fold="1" page="1" pageScale="1" pageWidth="850" pageHeight="1100" math="0" shadow="0">
      <root>
        <mxCell id="0" />
        <mxCell id="1" parent="0" />
        <mxCell id="PUniKU1Su1RuGOnUz6Iy-47" value="" style="rounded=1;whiteSpace=wrap;html=1;arcSize=16;absoluteArcSize=1;" vertex="1" parent="1">
          <mxGeometry x="30" y="30" width="700" height="250" as="geometry" />
        </mxCell>
        <mxCell id="PUniKU1Su1RuGOnUz6Iy-9" value="" style="rounded=1;whiteSpace=wrap;html=1;arcSize=16;absoluteArcSize=1;" vertex="1" parent="1">
          <mxGeometry x="40" y="50" width="680" height="220" as="geometry" />
        </mxCell>
        <mxCell id="PUniKU1Su1RuGOnUz6Iy-16" value="" style="rounded=1;whiteSpace=wrap;html=1;arcSize=16;absoluteArcSize=1;fillColor=#3399FF;strokeColor=#36393d;" vertex="1" parent="1">
          <mxGeometry x="220" y="60" width="490" height="200" as="geometry" />
        </mxCell>
        <mxCell id="PUniKU1Su1RuGOnUz6Iy-42" value="" style="rounded=1;whiteSpace=wrap;html=1;absoluteArcSize=1;arcSize=12;" vertex="1" parent="1">
          <mxGeometry x="390" y="80" width="150" height="170" as="geometry" />
        </mxCell>
        <mxCell id="PUniKU1Su1RuGOnUz6Iy-6" value="" style="rounded=1;whiteSpace=wrap;html=1;arcSize=16;absoluteArcSize=1;fillColor=#1ba1e2;fontColor=#ffffff;strokeColor=#006EAF;" vertex="1" parent="1">
          <mxGeometry x="50" y="60" width="160" height="200" as="geometry" />
        </mxCell>
        <mxCell id="PUniKU1Su1RuGOnUz6Iy-2" value="Windows Runtime (WinRT)" style="text;html=1;strokeColor=none;fillColor=none;align=center;verticalAlign=middle;whiteSpace=wrap;rounded=0;fontColor=#FFFFFF;" vertex="1" parent="1">
          <mxGeometry x="50" y="60" width="160" height="20" as="geometry" />
        </mxCell>
        <mxCell id="PUniKU1Su1RuGOnUz6Iy-18" value="Win32" style="text;html=1;strokeColor=none;fillColor=none;align=center;verticalAlign=middle;whiteSpace=wrap;rounded=0;fontColor=#FFFFFF;" vertex="1" parent="1">
          <mxGeometry x="220" y="60" width="490" height="20" as="geometry" />
        </mxCell>
        <mxCell id="PUniKU1Su1RuGOnUz6Iy-19" value="" style="rounded=1;whiteSpace=wrap;html=1;absoluteArcSize=1;arcSize=12;" vertex="1" parent="1">
          <mxGeometry x="60" y="80" width="140" height="170" as="geometry" />
        </mxCell>
        <mxCell id="PUniKU1Su1RuGOnUz6Iy-23" value="Windows 8" style="text;html=1;strokeColor=none;fillColor=none;align=center;verticalAlign=middle;whiteSpace=wrap;rounded=0;" vertex="1" parent="1">
          <mxGeometry x="40" y="30" width="680" height="20" as="geometry" />
        </mxCell>
        <mxCell id="PUniKU1Su1RuGOnUz6Iy-24" value="WinUI" style="text;html=1;strokeColor=none;fillColor=none;align=center;verticalAlign=middle;whiteSpace=wrap;rounded=0;" vertex="1" parent="1">
          <mxGeometry x="60" y="80" width="140" height="20" as="geometry" />
        </mxCell>
        <mxCell id="PUniKU1Su1RuGOnUz6Iy-30" value="Packaged" style="rounded=1;whiteSpace=wrap;html=1;absoluteArcSize=1;arcSize=12;fillColor=#d5e8d4;strokeColor=#82b366;" vertex="1" parent="1">
          <mxGeometry x="70" y="100" width="120" height="20" as="geometry" />
        </mxCell>
        <mxCell id="PUniKU1Su1RuGOnUz6Iy-39" value="C / C++" style="rounded=1;whiteSpace=wrap;html=1;absoluteArcSize=1;arcSize=12;fillColor=#b1ddf0;strokeColor=#10739e;" vertex="1" parent="1">
          <mxGeometry x="70" y="220" width="120" height="20" as="geometry" />
        </mxCell>
        <mxCell id="PUniKU1Su1RuGOnUz6Iy-41" value="" style="rounded=1;whiteSpace=wrap;html=1;absoluteArcSize=1;arcSize=12;" vertex="1" parent="1">
          <mxGeometry x="230" y="80" width="150" height="170" as="geometry" />
        </mxCell>
        <mxCell id="PUniKU1Su1RuGOnUz6Iy-25" value="XAML" style="rounded=1;whiteSpace=wrap;html=1;absoluteArcSize=1;arcSize=12;fillColor=#dae8fc;strokeColor=#6c8ebf;" vertex="1" parent="1">
          <mxGeometry x="70" y="130" width="300" height="20" as="geometry" />
        </mxCell>
        <mxCell id="PUniKU1Su1RuGOnUz6Iy-26" value="Dynamic data binding" style="rounded=1;whiteSpace=wrap;html=1;absoluteArcSize=1;arcSize=12;fillColor=#dae8fc;strokeColor=#6c8ebf;" vertex="1" parent="1">
          <mxGeometry x="70" y="160" width="300" height="20" as="geometry" />
        </mxCell>
        <mxCell id="PUniKU1Su1RuGOnUz6Iy-38" value=".NET" style="rounded=1;whiteSpace=wrap;html=1;absoluteArcSize=1;arcSize=12;fillColor=#d5e8d4;strokeColor=#82b366;" vertex="1" parent="1">
          <mxGeometry x="70" y="190" width="460" height="20" as="geometry" />
        </mxCell>
        <mxCell id="PUniKU1Su1RuGOnUz6Iy-43" value="WPF" style="text;html=1;strokeColor=none;fillColor=none;align=center;verticalAlign=middle;whiteSpace=wrap;rounded=0;fontColor=default;" vertex="1" parent="1">
          <mxGeometry x="230" y="80" width="150" height="20" as="geometry" />
        </mxCell>
        <mxCell id="PUniKU1Su1RuGOnUz6Iy-44" value="Windows Forms" style="text;html=1;strokeColor=none;fillColor=none;align=center;verticalAlign=middle;whiteSpace=wrap;rounded=0;fontColor=default;" vertex="1" parent="1">
          <mxGeometry x="390" y="80" width="150" height="20" as="geometry" />
        </mxCell>
        <mxCell id="PUniKU1Su1RuGOnUz6Iy-45" value="" style="rounded=1;whiteSpace=wrap;html=1;absoluteArcSize=1;arcSize=12;" vertex="1" parent="1">
          <mxGeometry x="550" y="80" width="150" height="170" as="geometry" />
        </mxCell>
        <mxCell id="PUniKU1Su1RuGOnUz6Iy-46" value="MFC" style="text;html=1;strokeColor=none;fillColor=none;align=center;verticalAlign=middle;whiteSpace=wrap;rounded=0;fontColor=default;" vertex="1" parent="1">
          <mxGeometry x="550" y="80" width="150" height="20" as="geometry" />
        </mxCell>
        <mxCell id="PUniKU1Su1RuGOnUz6Iy-35" value="Code-behind" style="rounded=1;whiteSpace=wrap;html=1;absoluteArcSize=1;arcSize=12;fillColor=#fff2cc;strokeColor=#d6b656;" vertex="1" parent="1">
          <mxGeometry x="400" y="130" width="290" height="50" as="geometry" />
        </mxCell>
        <mxCell id="PUniKU1Su1RuGOnUz6Iy-31" value="Unpackaged" style="rounded=1;whiteSpace=wrap;html=1;absoluteArcSize=1;arcSize=12;fillColor=#ffe6cc;strokeColor=#d79b00;" vertex="1" parent="1">
          <mxGeometry x="240" y="100" width="450" height="20" as="geometry" />
        </mxCell>
        <mxCell id="PUniKU1Su1RuGOnUz6Iy-40" value="C / C++" style="rounded=1;whiteSpace=wrap;html=1;absoluteArcSize=1;arcSize=12;fillColor=#b1ddf0;strokeColor=#10739e;" vertex="1" parent="1">
          <mxGeometry x="560" y="220" width="130" height="20" as="geometry" />
        </mxCell>
      </root>
    </mxGraphModel>
  </diagram>
</mxfile>
